<svg width="1920" height="1080" viewBox="0 0 1920 1080" fill="none" xmlns="http://www.w3.org/2000/svg">
<path d="M1265.99 596.95H1277.46V658.067H1266.35V649.592H1265.87C1263.91 652.797 1261.1 655.39 1257.75 657.094C1254.3 659.046 1250.41 660.081 1246.44 660.096C1240.02 660.5 1233.74 658.155 1229.16 653.646C1224.85 648.577 1222.69 642.033 1223.12 635.396V596.95H1234.6V634.625C1234.84 644.601 1239.87 649.592 1249.68 649.592C1254.17 649.633 1258.41 647.578 1261.16 644.037C1264.24 640.299 1265.88 635.577 1265.78 630.737V596.955H1265.99V596.95ZM1341.46 620.392V658.067H1330.47V649.551H1329.99C1325.96 656.177 1318.72 660.174 1310.96 660.055C1304.78 660.272 1298.75 658.124 1294.09 654.055C1289.68 650.353 1287.17 644.85 1287.28 639.087C1287.08 633.191 1289.76 627.568 1294.46 624.001C1300.03 620.025 1306.77 618.052 1313.6 618.404C1319.44 618.182 1325.23 619.466 1330.43 622.137V619.543C1330.46 615.609 1328.72 611.871 1325.68 609.365C1322.63 606.673 1318.68 605.223 1314.61 605.311C1308.46 605.161 1302.68 608.242 1299.36 613.424L1289.26 607.056C1294.85 599.047 1304.21 594.517 1313.96 595.091C1321.35 594.62 1328.62 597.048 1334.24 601.863C1339.18 606.725 1341.8 613.465 1341.46 620.392ZM1330.47 631.829C1326.08 628.842 1320.81 627.413 1315.51 627.775C1311.36 627.625 1307.28 628.805 1303.87 631.14C1300.99 632.952 1299.22 636.095 1299.16 639.496C1299.16 642.39 1300.53 645.114 1302.85 646.838C1305.39 648.836 1308.54 649.897 1311.77 649.84C1316.61 649.835 1321.25 647.909 1324.67 644.487C1328.33 641.293 1330.45 636.685 1330.47 631.829ZM1198.99 580.202C1207.74 588.941 1212.52 600.89 1212.22 613.253C1212.25 619.994 1210.87 626.667 1208.16 632.844C1205.47 638.885 1201.53 644.29 1196.6 648.701L1202.85 658.031L1193.84 663.912L1187.76 654.785C1181.1 658.119 1173.76 659.884 1166.31 659.936C1154 660.205 1142.13 655.323 1133.58 646.47C1124.85 637.7 1120.07 625.746 1120.35 613.377C1120.04 600.978 1124.82 588.988 1133.58 580.202C1151.66 562.17 1180.92 562.17 1198.99 580.202ZM1200.49 613.253C1200.83 603.748 1197.27 594.517 1190.63 587.704C1184.32 581.03 1175.48 577.349 1166.3 577.567C1157.13 577.401 1148.31 581.077 1141.97 587.704C1135.43 594.569 1131.92 603.774 1132.24 613.253C1131.92 622.743 1135.42 631.969 1141.97 638.844C1148.31 645.461 1157.14 649.126 1166.3 648.945C1171.54 648.976 1176.7 647.78 1181.39 645.455L1170.92 629.758L1179.89 623.633L1190.27 639.248C1197.16 632.44 1200.86 623.048 1200.49 613.372V613.253H1200.49ZM1714.52 568.522L1748.31 658.108H1735.57L1726.93 633.776H1689.26L1680.5 658.108H1667.84L1701.62 568.522H1714.52ZM1722.92 623.069L1708.41 582.635H1707.88L1693.24 623.193L1722.92 623.069ZM1385.26 594.962C1381.31 594.983 1377.43 596.013 1373.99 597.965C1370.65 599.658 1367.84 602.236 1365.87 605.425H1365.39V596.95H1354.4V658.108H1365.88V624.286C1365.78 619.44 1367.42 614.723 1370.5 610.985C1373.25 607.444 1377.5 605.389 1381.98 605.43C1391.79 605.43 1396.82 610.421 1397.07 620.398V658.072H1408.54V619.668C1408.97 613.02 1406.8 606.466 1402.5 601.377C1397.92 596.888 1391.66 594.558 1385.26 594.962ZM1601.5 594.962C1592.87 594.771 1584.81 599.254 1580.41 606.683C1578.87 603.101 1576.25 600.098 1572.91 598.084C1565.92 593.999 1557.27 593.999 1550.28 598.084C1546.94 599.787 1544.13 602.381 1542.17 605.586H1541.68V596.945H1530.69V658.062H1542.13V624.281C1542.03 619.471 1543.62 614.78 1546.63 611.017C1549.23 607.486 1553.36 605.404 1557.74 605.42C1561.63 605.016 1565.49 606.424 1568.2 609.23C1570.61 612.901 1571.7 617.271 1571.33 621.64V658.139H1582.8V624.275C1582.71 619.466 1584.3 614.775 1587.31 611.011C1589.89 607.481 1594.01 605.399 1598.38 605.415C1602.28 605.016 1606.15 606.419 1608.89 609.225C1611.29 612.896 1612.39 617.265 1612.01 621.635V658.134H1623.49V619.89C1623.93 613.227 1621.88 606.631 1617.73 601.397C1613.53 596.966 1607.6 594.589 1601.51 594.91V594.962H1601.5ZM1758.81 568.558V658.108H1770.33V568.522L1758.81 568.558ZM1505.26 596.95V630.731C1505.36 635.577 1503.72 640.294 1500.64 644.032C1497.89 647.573 1493.64 649.628 1489.16 649.587C1479.34 649.587 1474.32 644.596 1474.07 634.619V596.945H1462.6V635.391C1462.15 642.028 1464.32 648.582 1468.64 653.641C1473.22 658.15 1479.5 660.495 1485.91 660.091C1489.88 660.071 1493.77 659.04 1497.23 657.089C1500.58 655.385 1503.39 652.791 1505.34 649.587H1505.63V658.062H1516.58V596.95H1505.26ZM1447.59 648.049C1446.7 648.246 1445.79 648.339 1444.88 648.334C1442.87 648.329 1440.96 647.542 1439.52 646.144C1437.7 643.856 1436.85 640.941 1437.17 638.031V607.413H1452.14V596.95H1437.17V578.214H1425.69V596.95H1414.95V607.413H1425.69V641.603C1425.5 646.403 1427.32 651.067 1430.72 654.458C1434.09 657.56 1438.55 659.206 1443.13 659.04C1446.7 659.108 1450.25 658.574 1453.64 657.456L1449.99 647.236C1449.21 647.562 1448.41 647.837 1447.59 648.049Z" fill="#5F6368"/>
<path d="M1169.87 479.919V466.277H1215.54C1216.01 468.68 1216.28 471.543 1216.28 474.644C1216.28 484.874 1213.48 497.543 1204.47 506.556C1195.7 515.694 1184.49 520.566 1169.63 520.566C1142.1 520.566 1118.96 498.154 1118.96 470.626C1118.96 443.094 1142.1 420.682 1169.63 420.682C1184.86 420.682 1195.7 426.651 1203.86 434.448L1194.23 444.072C1188.39 438.59 1180.47 434.329 1169.62 434.329C1149.53 434.329 1133.81 450.528 1133.81 470.626C1133.81 490.724 1149.53 506.924 1169.62 506.924C1182.66 506.924 1190.09 501.684 1194.84 496.937C1198.71 493.069 1201.26 487.514 1202.25 479.925L1169.87 479.919Z" fill="#4285F4"/>
<path d="M1285.88 488.405C1285.88 506.918 1271.39 520.56 1253.6 520.56C1235.82 520.56 1221.32 506.918 1221.32 488.405C1221.32 469.767 1235.82 456.249 1253.6 456.249C1271.39 456.249 1285.88 469.767 1285.88 488.405ZM1271.75 488.405C1271.75 476.834 1263.35 468.918 1253.61 468.918C1243.86 468.918 1235.46 476.834 1235.46 488.405C1235.46 499.852 1243.86 507.892 1253.61 507.892C1263.35 507.892 1271.75 499.857 1271.75 488.405Z" fill="#E94235"/>
<path d="M1356.3 488.405C1356.3 506.918 1341.8 520.56 1324.02 520.56C1306.23 520.56 1291.74 506.918 1291.74 488.405C1291.74 469.767 1306.23 456.249 1324.02 456.249C1341.8 456.249 1356.3 469.767 1356.3 488.405ZM1342.17 488.405C1342.17 476.834 1333.76 468.918 1324.02 468.918C1314.28 468.918 1305.87 476.834 1305.87 488.405C1305.87 499.852 1314.27 507.892 1324.02 507.892C1333.76 507.892 1342.17 499.857 1342.17 488.405Z" fill="#FABB05"/>
<path d="M1423.79 458.196V515.932C1423.79 539.685 1409.78 549.429 1393.22 549.429C1377.63 549.429 1368.25 538.955 1364.72 530.428L1377.02 525.313C1379.21 530.552 1384.57 536.765 1393.22 536.765C1403.82 536.765 1410.39 530.185 1410.39 517.884V513.255H1409.9C1406.74 517.154 1400.65 520.56 1392.97 520.56C1376.89 520.56 1362.16 506.551 1362.16 488.524C1362.16 470.373 1376.9 456.244 1392.97 456.244C1400.65 456.244 1406.74 459.656 1409.9 463.43H1410.39V458.191H1423.79V458.196ZM1411.36 488.529C1411.36 477.201 1403.81 468.918 1394.19 468.918C1384.45 468.918 1376.28 477.201 1376.28 488.529C1376.28 499.733 1384.44 507.897 1394.19 507.897C1403.81 507.892 1411.36 499.733 1411.36 488.529Z" fill="#4285F4"/>
<path d="M1447.72 424.409V518.614H1433.59V424.409H1447.72Z" fill="#34A853"/>
<path d="M1502.28 499.003L1513.24 506.313C1509.71 511.552 1501.18 520.566 1486.44 520.566C1468.17 520.566 1454.53 506.437 1454.53 488.41C1454.53 469.285 1468.3 456.254 1484.86 456.254C1501.54 456.254 1509.71 469.534 1512.38 476.72L1513.84 480.375L1470.85 498.159C1474.14 504.615 1479.25 507.902 1486.44 507.902C1493.63 507.892 1498.62 504.361 1502.28 499.003ZM1468.54 487.431L1497.28 475.493C1495.7 471.475 1490.95 468.674 1485.34 468.674C1478.16 468.674 1468.17 475.006 1468.54 487.431Z" fill="#E94235"/>
<path d="M554.915 499.963V586.31H579.306V499.963H554.915ZM363.086 499.846V586.31H387.689V519.193L406.882 519.259C413.192 519.259 417.562 520.774 420.6 524.017C424.457 528.131 426.031 534.755 426.031 546.877V586.31H449.865V538.54C449.865 504.443 428.132 499.846 406.875 499.846H363.086ZM594.18 499.963V586.303H633.731C654.805 586.303 661.679 582.797 669.123 574.942C674.379 569.423 677.775 557.316 677.775 544.081C677.775 531.944 674.899 521.118 669.884 514.376C660.851 502.32 647.836 499.963 628.402 499.963H594.18ZM618.366 518.761H628.848C644.059 518.761 653.897 525.591 653.897 543.312C653.897 561.034 644.059 567.871 628.848 567.871H618.366V518.761ZM519.757 499.963L499.407 568.391L479.907 499.963H453.584L481.437 586.303H516.58L544.653 499.963H519.765H519.757ZM689.121 586.303H713.512V499.963H689.114V586.303H689.121ZM757.484 499.992L723.431 586.274H747.477L752.865 571.026H793.162L798.264 586.274H824.367L790.058 499.985H757.484V499.992ZM773.317 515.738L788.089 556.159H758.076L773.317 515.738Z" fill="black"/>
<path d="M205.815 514.354V502.474C206.971 502.393 208.135 502.328 209.321 502.291C241.822 501.266 263.145 530.217 263.145 530.217C263.145 530.217 240.116 562.206 215.426 562.206C211.868 562.206 208.684 561.635 205.815 560.668V524.632C218.471 526.162 221.011 531.747 228.617 544.425L245.533 530.158C245.533 530.158 233.184 513.959 212.366 513.959C210.104 513.959 207.937 514.12 205.807 514.347M205.815 475.104V492.855C206.978 492.76 208.15 492.687 209.321 492.643C254.515 491.121 283.964 529.712 283.964 529.712C283.964 529.712 250.145 570.836 214.906 570.836C211.678 570.836 208.655 570.536 205.815 570.038V581.011C208.245 581.318 210.763 581.501 213.383 581.501C246.17 581.501 269.887 564.76 292.85 544.938C296.657 547.983 312.241 555.398 315.447 558.648C293.611 576.926 242.737 591.654 213.889 591.654C211.107 591.654 208.435 591.486 205.815 591.237V606.653H330.439V475.104H205.815ZM205.815 560.668V570.038C175.488 564.629 167.069 533.108 167.069 533.108C167.069 533.108 181.629 516.975 205.815 514.362V524.639C205.815 524.639 205.785 524.639 205.771 524.639C193.078 523.117 183.166 534.975 183.166 534.975C183.166 534.975 188.722 554.937 205.822 560.683M151.946 531.74C151.946 531.74 169.917 505.219 205.807 502.474V492.855C166.059 496.047 131.633 529.712 131.633 529.712C131.633 529.712 151.126 586.076 205.807 591.237V581.011C165.679 575.96 151.946 531.74 151.946 531.74Z" fill="#76B900"/>
<rect x="956" y="388" width="8" height="304" fill="#CCCCCC"/>
</svg>
