<svg xmlns="http://www.w3.org/2000/svg" xmlns:xlink="http://www.w3.org/1999/xlink" width="1920" height="1080" viewBox="0 0 1920 1080">
  <defs>
    <style>
      .cls-1 {
        clip-path: url(#clip-nvidia-and-microsoft-partnership-h-on-dark);
      }

      .cls-2, .cls-8 {
        fill: none;
      }

      .cls-3 {
        fill: #fff;
      }

      .cls-4 {
        fill: #74b71b;
      }

      .cls-5 {
        opacity: 0;
      }

      .cls-6, .cls-7 {
        fill: #f0f;
      }

      .cls-6 {
        opacity: 0.22;
      }

      .cls-7, .cls-8 {
        opacity: 0.2;
      }

      .cls-8 {
        stroke: #f0f;
        stroke-width: 5px;
        stroke-dasharray: 10;
      }

      .cls-9 {
        fill: #ccc;
      }

      .cls-10 {
        fill: #f25022;
      }

      .cls-11 {
        fill: #7fba00;
      }

      .cls-12 {
        fill: #00a4ef;
      }

      .cls-13 {
        fill: #ffb900;
      }

      .cls-14 {
        stroke: none;
      }
    </style>
    <clipPath id="clip-nvidia-and-microsoft-partnership-h-on-dark">
      <rect width="1920" height="1080"/>
    </clipPath>
  </defs>
  <g id="nvidia-and-microsoft-partnership-h-on-dark" class="cls-1">
    <rect width="1920" height="1080"/>
    <g id="nvidia-ecorobotix-max-width">
      <rect id="_16_by_9_Boundary" data-name="16 by 9 Boundary" class="cls-2" width="1920" height="1080"/>
      <g id="NVIDIA_Logo" data-name="NVIDIA Logo" transform="translate(0 342.927)">
        <g id="Horizontal">
          <g id="NVIDIA_Logo_Horizontal_" data-name="NVIDIA Logo (Horizontal)" transform="translate(131.299 131.486)">
            <path id="Registration_Mark" data-name="Registration Mark" class="cls-3" d="M1139.389,321.318v-1.967h1.263c.69,0,1.629.051,1.629.9,0,.91-.484,1.072-1.3,1.072Zm0,1.382h.845l1.957,3.437h2.148l-2.165-3.578a1.943,1.943,0,0,0,2.041-2.123c0-1.872-1.294-2.475-3.479-2.475h-3.162v8.176h1.815V322.7m9.2-.64c0-4.8-3.731-7.588-7.888-7.588-4.187,0-7.915,2.786-7.915,7.588s3.728,7.6,7.915,7.6c4.157,0,7.888-2.8,7.888-7.6m-2.276,0a5.6,5.6,0,0,1-5.612,5.847v-.025a5.833,5.833,0,1,1,5.612-5.822" transform="translate(-436.473 -216.018)"/>
            <path id="Word_Mark" data-name="Word Mark" class="cls-3" d="M687.36,213.63l.009,86.179h24.338V213.631ZM495.9,213.513v86.3h24.555V232.823l19.156.064c6.3,0,10.656,1.509,13.693,4.75,3.85,4.1,5.421,10.715,5.421,22.818v39.354h23.792V252.131c0-34.029-21.691-38.618-42.912-38.618Zm230.65.12v86.176h39.476c21.033,0,27.9-3.5,35.321-11.34,5.249-5.507,8.639-17.593,8.639-30.8,0-12.114-2.869-22.92-7.878-29.649-9.016-12.034-22.006-14.387-41.4-14.387ZM750.691,232.4h10.465c15.182,0,25,6.818,25,24.508s-9.819,24.51-25,24.51H750.691Zm-98.422-18.765-20.312,68.3-19.464-68.295-26.273,0,27.8,86.176h35.078l28.016-86.176Zm169.042,86.176h24.343V213.637l-24.349,0Zm68.228-86.145-33.986,86.115h24l5.376-15.22h40.22l5.09,15.22H956.3l-34.245-86.122Zm15.8,15.711,14.743,40.344H890.13Z" transform="translate(-264.895 -188.82)"/>
            <path id="Eye_Mark" data-name="Eye Mark" class="cls-4" d="M253.748,218.892v-11.86c1.151-.083,2.315-.144,3.5-.181,32.438-1.019,53.719,27.872,53.719,27.872s-22.985,31.924-47.628,31.924a29.894,29.894,0,0,1-9.59-1.533V229.151c12.628,1.525,15.167,7.1,22.761,19.758l16.886-14.236s-12.325-16.166-33.1-16.166a61.147,61.147,0,0,0-6.543.386m0-39.178V197.43c1.165-.092,2.33-.167,3.5-.208,45.11-1.52,74.5,37,74.5,37s-33.757,41.047-68.923,41.047a51.874,51.874,0,0,1-9.075-.8v10.951a59.713,59.713,0,0,0,7.557.49c32.727,0,56.393-16.712,79.311-36.493,3.8,3.042,19.354,10.443,22.554,13.688-21.792,18.241-72.573,32.943-101.362,32.943-2.774,0-5.442-.168-8.06-.419v15.39H378.135v-131.3Zm0,85.4v9.349c-30.269-5.4-38.67-36.861-38.67-36.861a65.435,65.435,0,0,1,38.67-18.711v10.258c-.018,0-.031-.005-.048-.005-12.665-1.521-22.562,10.313-22.562,10.313s5.544,19.923,22.609,25.656m-53.76-28.875s17.94-26.471,53.76-29.208v-9.6c-39.675,3.184-74.033,36.787-74.033,36.787s19.459,56.257,74.033,61.407V285.415c-40.048-5.039-53.76-49.175-53.76-49.175" transform="translate(-179.715 -179.714)"/>
          </g>
          <g id="Horizontal_Guides" data-name="Horizontal Guides" class="cls-5">
            <path id="Eye_Mark_for_Spacing" data-name="Eye Mark for Spacing" class="cls-6" d="M39.178,378.7H27.318c-.082-1.151-.143-2.315-.18-3.5-1.019-32.438,27.872-53.719,27.872-53.719s31.924,22.985,31.924,47.628A29.876,29.876,0,0,1,85.4,378.7H49.437c1.525-12.628,7.1-15.167,19.758-22.761L54.958,339.055s-16.165,12.326-16.165,33.1a61.152,61.152,0,0,0,.386,6.543M0,378.7H17.716c-.092-1.165-.167-2.33-.208-3.5-1.52-45.11,36.995-74.5,36.995-74.5S95.55,334.46,95.55,369.626a51.872,51.872,0,0,1-.8,9.075H105.7a59.853,59.853,0,0,0,.489-7.557c0-32.727-16.712-56.393-36.493-79.311,3.042-3.8,10.443-19.354,13.688-22.554,18.24,21.792,32.943,72.572,32.943,101.362,0,2.774-.167,5.442-.419,8.06H131.3V254.314H0Zm85.4,0h9.35c-5.4,30.269-36.861,38.67-36.861,38.67A65.435,65.435,0,0,1,39.178,378.7H49.437c0,.018-.005.031-.005.047C47.91,391.414,59.745,401.31,59.745,401.31S79.667,395.766,85.4,378.7m-28.874,53.76s-26.471-17.94-29.209-53.76h-9.6C20.9,418.376,54.5,452.734,54.5,452.734s56.256-19.459,61.407-74.033H105.7c-5.039,40.048-49.175,53.76-49.175,53.76" transform="translate(0 -181.628)"/>
            <path id="Eye_Mark_for_Spacing-2" data-name="Eye Mark for Spacing" class="cls-6" d="M525.334,451.55v11.861c1.151.082,2.315.143,3.5.18,32.438,1.019,53.719-27.872,53.719-27.872s-22.985-31.924-47.628-31.924a29.877,29.877,0,0,0-9.59,1.534v35.964c12.628-1.525,15.167-7.1,22.761-19.758l16.886,14.236s-12.326,16.166-33.1,16.166a61.151,61.151,0,0,1-6.543-.386m0,39.178V473.013c1.165.092,2.33.167,3.5.208,45.11,1.52,74.5-37,74.5-37s-33.757-41.047-68.923-41.047a51.874,51.874,0,0,0-9.075.8V385.027a59.859,59.859,0,0,1,7.557-.489c32.727,0,56.393,16.711,79.311,36.493,3.8-3.042,19.354-10.443,22.553-13.688C612.964,389.1,562.183,374.4,533.394,374.4c-2.774,0-5.442.168-8.06.419v-15.39H649.721v131.3Zm0-85.4v-9.35c-30.269,5.4-38.67,36.861-38.67,36.861a65.435,65.435,0,0,0,38.67,18.711V441.292c-.018,0-.031.005-.047.005-12.665,1.521-22.562-10.313-22.562-10.313s5.544-19.923,22.609-25.656M471.574,434.2s17.94,26.471,53.76,29.209v9.6c-39.675-3.184-74.033-36.787-74.033-36.787s19.459-56.256,74.033-61.407v10.208c-40.048,5.039-53.76,49.175-53.76,49.175" transform="translate(-172.721 -96.582)"/>
            <path id="Eye_Mark_for_Spacing-3" data-name="Eye Mark for Spacing" class="cls-6" d="M39.178,124.387H27.318c-.082-1.151-.143-2.315-.181-3.5C26.118,88.45,55.01,67.169,55.01,67.169S86.934,90.154,86.934,114.8a29.879,29.879,0,0,1-1.533,9.59H49.437c1.525-12.628,7.1-15.167,19.758-22.761L54.958,84.741s-16.166,12.326-16.166,33.1a61.154,61.154,0,0,0,.386,6.543M0,124.387H17.715c-.092-1.165-.167-2.33-.208-3.5-1.52-45.11,36.994-74.5,36.994-74.5S95.55,80.146,95.55,115.312a51.869,51.869,0,0,1-.8,9.075H105.7a59.864,59.864,0,0,0,.489-7.557c0-32.727-16.712-56.393-36.493-79.311,3.042-3.8,10.443-19.354,13.688-22.554,18.24,21.792,32.943,72.572,32.943,101.362,0,2.774-.168,5.442-.419,8.06H131.3V0H0Zm85.4,0h9.35c-5.4,30.269-36.861,38.67-36.861,38.67a65.435,65.435,0,0,1-18.711-38.67H49.437c0,.018-.005.031-.005.047C47.91,137.1,59.745,147,59.745,147s19.923-5.544,25.656-22.609m-28.874,53.76s-26.471-17.94-29.209-53.76h-9.6C20.9,164.062,54.5,198.42,54.5,198.42s56.257-19.459,61.407-74.033H105.7c-5.039,40.048-49.175,53.76-49.175,53.76" transform="translate(953.999 321.46) rotate(180)"/>
            <path id="Eye_Mark_for_Spacing-4" data-name="Eye Mark for Spacing" class="cls-6" d="M124.387,39.178V27.318c-1.151-.082-2.315-.143-3.5-.18C88.45,26.118,67.169,55.01,67.169,55.01S90.154,86.934,114.8,86.934a29.877,29.877,0,0,0,9.59-1.534V49.437c-12.628,1.525-15.167,7.1-22.761,19.758L84.74,54.958s12.326-16.165,33.1-16.165a61.153,61.153,0,0,1,6.543.386m0-39.178V17.716c-1.165-.092-2.33-.167-3.5-.208-45.11-1.52-74.5,36.995-74.5,36.995S80.146,95.55,115.312,95.55a51.874,51.874,0,0,0,9.075-.8V105.7a59.853,59.853,0,0,1-7.557.489C84.1,106.19,60.437,89.479,37.519,69.7c-3.8,3.042-19.354,10.443-22.553,13.688,21.792,18.24,72.572,32.943,101.361,32.943,2.774,0,5.442-.167,8.06-.419V131.3H0V0Zm0,85.4v9.35c30.269-5.4,38.67-36.861,38.67-36.861a65.435,65.435,0,0,0-38.67-18.711V49.437c.018,0,.031-.005.047-.005C137.1,47.91,147,59.745,147,59.745S141.452,79.667,124.387,85.4m53.76-28.874s-17.94-26.471-53.76-29.209v-9.6C164.062,20.9,198.42,54.5,198.42,54.5s-19.459,56.257-74.033,61.407V105.7c40.048-5.039,53.76-49.175,53.76-49.175" transform="translate(477)"/>
            <path id="n_for_Spacing" data-name="n for Spacing" class="cls-7" d="M366.667,731.39V674.558H350.5v43.153l-12.527,0c-4.15,0-7.105-1.033-9.105-3.166-2.536-2.7-3.57-7.057-3.57-15.027V674.558H309.625v31.4c0,22.411,14.285,25.433,28.26,25.433Z" transform="translate(587.332 -411.959)"/>
            <path id="n_for_Spacing-2" data-name="n for Spacing" class="cls-7" d="M366.667,674.558V731.39H350.5V688.237l-12.527,0c-4.15,0-7.105,1.032-9.105,3.166-2.536,2.7-3.57,7.057-3.57,15.027V731.39H309.625v-31.4c0-22.411,14.285-25.433,28.26-25.433Z" transform="translate(587.332 -600.09)"/>
            <path id="n_for_Spacing-3" data-name="n for Spacing" class="cls-7" d="M309.625,731.39V674.558H325.8v43.153l12.527,0c4.15,0,7.105-1.033,9.105-3.166,2.536-2.7,3.57-7.057,3.57-15.027V674.558h15.668v31.4c0,22.411-14.285,25.433-28.26,25.433Z" transform="translate(-309.625 -411.959)"/>
            <path id="n_for_Spacing-4" data-name="n for Spacing" class="cls-7" d="M309.625,674.558V731.39H325.8V688.237l12.527,0c4.15,0,7.105,1.032,9.105,3.166,2.536,2.7,3.57,7.057,3.57,15.027V731.39h15.668v-31.4c0-22.411-14.285-25.433-28.26-25.433Z" transform="translate(-309.625 -600.09)"/>
            <g id="Height" class="cls-8" transform="translate(0 131)">
              <rect class="cls-14" width="954" height="132"/>
              <rect class="cls-2" x="2.5" y="2.5" width="949" height="127"/>
            </g>
          </g>
        </g>
      </g>
      <rect id="Separator" class="cls-9" width="12" height="244" transform="translate(954 418)"/>
      <g id="Microsoft" transform="translate(971.088 221.115)">
        <path id="Path_127" data-name="Path 127" class="cls-3" d="M455.224,343.145l-4.158,11.6h-.229a108.552,108.552,0,0,0-3.923-11.47L424.736,287.63H403.05v88.456h14.3V321.715c0-3.361-.076-7.416-.215-12.059-.069-2.349-.34-4.228-.4-5.662h.312c.728,3.334,1.483,5.87,2.024,7.568l26.6,64.525h10.015l26.4-65.107a56.736,56.736,0,0,0,1.816-6.986h.319c-.347,6.445-.638,12.33-.693,15.885v56.208h15.247V287.63H477.984Z" transform="translate(-84.971 -13.085)"/>
        <rect id="Rectangle_32" data-name="Rectangle 32" class="cls-3" width="14.915" height="63.388" transform="translate(428.179 299.614)"/>
        <path id="Path_128" data-name="Path 128" class="cls-3" d="M568.9,284.93a9.01,9.01,0,0,0-6.355,2.488,8.234,8.234,0,0,0-2.661,6.238,7.991,7.991,0,0,0,2.634,6.092,9.079,9.079,0,0,0,6.383,2.433,9.211,9.211,0,0,0,6.411-2.426,7.97,7.97,0,0,0,2.661-6.1,8.393,8.393,0,0,0-2.592-6.154,8.892,8.892,0,0,0-6.48-2.557" transform="translate(-133.107 -12.255)"/>
        <path id="Path_129" data-name="Path 129" class="cls-3" d="M640.758,322.487a41.583,41.583,0,0,0-8.317-.887,36.754,36.754,0,0,0-18.138,4.359,29.337,29.337,0,0,0-11.955,12.295,39.1,39.1,0,0,0-4.11,18.214,33.628,33.628,0,0,0,3.992,16.329,28.041,28.041,0,0,0,11.158,11.29,33.267,33.267,0,0,0,16.3,3.957c7.09,0,13.168-1.386,17.985-4.207l.2-.118v-13.66l-.631.457a27.846,27.846,0,0,1-7.291,3.8,22.024,22.024,0,0,1-7.145,1.386c-5.85,0-10.548-1.83-13.958-5.441s-5.149-8.684-5.149-15.074,1.8-11.63,5.364-15.469a18.256,18.256,0,0,1,13.986-5.773,23.864,23.864,0,0,1,14.194,4.935l.631.457V324.941l-.2-.118a24.95,24.95,0,0,0-6.931-2.336" transform="translate(-144.881 -23.511)"/>
        <path id="Path_130" data-name="Path 130" class="cls-3" d="M716.852,322.2a15.3,15.3,0,0,0-9.973,3.576,20.212,20.212,0,0,0-5.732,8.5h-.159V323.306H686.08v63.388h14.908V354.272c0-5.545,1.254-10.049,3.715-13.466a11.408,11.408,0,0,1,9.647-5.094,17.584,17.584,0,0,1,4.484.658,11.264,11.264,0,0,1,3.465,1.386l.631.451V323.2l-.243-.1a15.462,15.462,0,0,0-5.843-.887" transform="translate(-171.843 -23.692)"/>
        <path id="Path_131" data-name="Path 131" class="cls-3" d="M774.043,321.6c-10.451,0-18.754,3.056-24.673,9.1s-8.92,14.4-8.92,24.853c0,9.925,2.932,17.909,8.7,23.724s13.639,8.767,23.356,8.767c10.133,0,18.276-3.1,24.188-9.232s8.92-14.395,8.92-24.6c0-10.084-2.814-18.124-8.365-23.9s-13.362-8.7-23.211-8.7m11.837,48.792c-2.772,3.514-7.021,5.3-12.531,5.3s-9.8-1.816-12.843-5.392-4.616-8.726-4.616-15.247c0-6.716,1.552-11.976,4.616-15.636s7.326-5.482,12.718-5.482c5.233,0,9.4,1.76,12.385,5.24s4.526,8.719,4.526,15.518-1.414,12.184-4.255,15.7" transform="translate(-188.531 -23.511)"/>
        <path id="Path_132" data-name="Path 132" class="cls-3" d="M870.741,349.316c-4.7-1.885-7.714-3.465-8.947-4.65a6.522,6.522,0,0,1-1.809-4.886,5.434,5.434,0,0,1,2.294-4.512,10.274,10.274,0,0,1,6.425-1.816,26.114,26.114,0,0,1,7.624,1.178,24.569,24.569,0,0,1,6.681,3.091l.617.423V324.358l-.243-.1a32.7,32.7,0,0,0-6.778-1.885,41.3,41.3,0,0,0-7.381-.769c-7.111,0-12.995,1.816-17.486,5.4a17.265,17.265,0,0,0-6.813,14.069,19.669,19.669,0,0,0,1.428,7.839,15.691,15.691,0,0,0,4.512,5.9,39.291,39.291,0,0,0,9.176,5.136,67.077,67.077,0,0,1,7.624,3.555,10.4,10.4,0,0,1,3.354,2.772,6.14,6.14,0,0,1,.943,3.59c0,4.262-3.188,6.335-9.751,6.335a26.915,26.915,0,0,1-8.234-1.511,31.117,31.117,0,0,1-8.455-4.29l-.631-.451V384.5l.229.1a37.725,37.725,0,0,0,8,2.474,43.235,43.235,0,0,0,8.546.984c7.721,0,13.931-1.83,18.463-5.434a17.59,17.59,0,0,0,6.875-14.4,16.515,16.515,0,0,0-3.7-10.888c-2.433-2.932-6.66-5.628-12.565-8" transform="translate(-220.587 -23.511)"/>
        <path id="Path_133" data-name="Path 133" class="cls-3" d="M948.636,321.6c-10.451,0-18.754,3.056-24.673,9.1s-8.913,14.4-8.913,24.853c0,9.925,2.925,17.909,8.7,23.724s13.64,8.767,23.363,8.767c10.133,0,18.269-3.1,24.188-9.232s8.913-14.395,8.913-24.6c0-10.084-2.814-18.124-8.365-23.9s-13.362-8.7-23.211-8.7m11.858,48.792c-2.772,3.514-7.014,5.3-12.531,5.3s-9.8-1.83-12.849-5.378-4.609-8.726-4.609-15.247c0-6.716,1.552-11.976,4.616-15.636s7.319-5.482,12.718-5.482c5.233,0,9.4,1.76,12.385,5.24s4.519,8.719,4.519,15.518-1.435,12.17-4.255,15.7" transform="translate(-242.121 -23.511)"/>
        <path id="Path_134" data-name="Path 134" class="cls-3" d="M1089.226,321.973V309.81h-15.1V290.9l-.513.152-14.18,4.339-.277.083V309.81h-22.379v-7.977c0-3.722.832-6.563,2.474-8.455a8.677,8.677,0,0,1,6.931-2.828,16.134,16.134,0,0,1,6.563,1.49l.555.249V279.454l-.263-.09a25.4,25.4,0,0,0-8.386-1.13,24.576,24.576,0,0,0-11.893,2.862,20.3,20.3,0,0,0-8.165,8.074,24.014,24.014,0,0,0-2.9,11.838v8.8H1011.18v12.163h10.514V373.2h15.095V321.973h22.379v32.574c0,13.4,6.321,20.2,18.8,20.2a30.785,30.785,0,0,0,6.411-.693,17.582,17.582,0,0,0,4.664-1.476l.2-.118V360.147l-.617.409a10.489,10.489,0,0,1-3.036,1.324,11.426,11.426,0,0,1-2.98.506c-2.925,0-5.087-.79-6.425-2.343s-2.079-4.3-2.079-8.144V321.973Z" transform="translate(-271.627 -10.196)"/>
        <rect id="Rectangle_33" data-name="Rectangle 33" class="cls-10" width="70.145" height="70.145" transform="translate(126.21 245)"/>
        <rect id="Rectangle_34" data-name="Rectangle 34" class="cls-11" width="70.145" height="70.145" transform="translate(203.66 245)"/>
        <rect id="Rectangle_35" data-name="Rectangle 35" class="cls-12" width="70.145" height="70.145" transform="translate(126.21 322.478)"/>
        <rect id="Rectangle_36" data-name="Rectangle 36" class="cls-13" width="70.145" height="70.145" transform="translate(203.66 322.478)"/>
      </g>
    </g>
  </g>
</svg>
