<svg width="1920" height="1080" viewBox="0 0 1920 1080" fill="none" xmlns="http://www.w3.org/2000/svg">
<path d="M1337.37 501.744C1337.2 506.539 1337.8 511.335 1339.17 515.96C1340.53 519.899 1342.25 523.753 1344.3 527.35C1344.98 528.463 1345.41 529.662 1345.41 530.947C1345.24 532.917 1344.04 534.629 1342.33 535.657L1332.75 542.423C1331.47 543.279 1330.01 543.793 1328.56 543.879C1326.76 543.793 1325.05 543.022 1323.85 541.652C1321.63 539.425 1319.66 536.942 1318.12 534.287C1316.33 531.204 1314.7 527.949 1313.25 524.695C1301.87 538.911 1284.59 547.047 1266.46 546.79C1254.74 547.39 1243.27 543.279 1234.63 535.4C1226.59 527.264 1222.4 516.131 1222.92 504.655C1222.4 492.237 1227.53 480.248 1236.94 472.026C1248.06 463.291 1261.92 458.923 1276.04 459.694C1281.68 459.694 1287.33 460.122 1292.89 460.979C1298.79 461.835 1304.86 462.948 1311.19 464.404V452.672C1312.13 443.508 1309.4 434.345 1303.58 427.151C1296.22 421.413 1286.9 418.844 1277.58 419.786C1271.76 419.786 1266.03 420.556 1260.38 421.927C1254.57 423.297 1248.83 425.181 1243.27 427.408C1241.48 428.264 1239.6 428.949 1237.71 429.549H1235.23C1233.01 429.549 1231.9 427.922 1231.9 424.582V416.874C1231.73 414.99 1232.15 413.02 1233.01 411.307C1234.21 409.851 1235.75 408.652 1237.54 407.967C1243.96 404.884 1250.63 402.486 1257.56 400.774C1265.69 398.718 1273.98 397.69 1282.37 397.69C1297.42 396.32 1312.39 401.03 1324.02 410.622C1333.61 421.327 1338.4 435.544 1337.28 449.845L1337.37 501.744ZM1272.61 526.065C1278.26 525.98 1283.82 524.952 1289.12 523.068C1294.94 521.013 1300.16 517.501 1304.18 512.791C1306.66 510.051 1308.46 506.711 1309.57 503.199C1310.68 498.66 1311.19 494.036 1311.11 489.411V482.731C1306.23 481.618 1301.36 480.676 1296.4 480.076C1291.43 479.477 1286.47 479.134 1281.43 479.134C1273.04 478.535 1264.66 480.762 1257.73 485.557C1248.32 494.978 1247.64 509.965 1256.02 520.156C1260.55 524.181 1266.54 526.322 1272.61 526.065ZM1400.58 543.279C1398.45 543.45 1396.22 542.937 1394.43 541.738C1392.71 540.025 1391.6 537.884 1391.09 535.486L1353.79 412.078C1353.11 410.023 1352.6 407.882 1352.34 405.655C1352 403.771 1353.28 402.058 1355.16 401.716C1355.16 401.716 1355.16 401.716 1355.25 401.716C1355.59 401.63 1355.93 401.63 1356.27 401.716H1371.93C1374.15 401.459 1376.29 402.058 1378.17 403.257C1379.8 405.056 1380.82 407.197 1381.34 409.509L1408.11 515.018L1432.92 409.509C1433.26 407.197 1434.37 405.056 1436.08 403.343C1437.97 402.144 1440.28 401.63 1442.5 401.801H1455.33C1457.55 401.63 1459.86 402.144 1461.75 403.343C1463.37 405.056 1464.48 407.197 1464.83 409.594L1489.8 516.474L1517.43 409.594C1517.95 407.282 1519.06 405.141 1520.68 403.343C1522.48 402.144 1524.7 401.544 1526.93 401.801H1541.73C1543.61 401.544 1545.32 402.743 1545.66 404.627C1545.66 404.627 1545.66 404.627 1545.66 404.713C1545.75 405.056 1545.75 405.398 1545.66 405.741C1545.75 406.597 1545.75 407.368 1545.66 408.224C1545.32 409.594 1544.98 410.879 1544.55 412.164L1506.23 535.571C1505.71 537.969 1504.6 540.11 1502.89 541.823C1501.1 543.022 1498.96 543.536 1496.73 543.365H1482.7C1480.48 543.622 1478.17 543.022 1476.29 541.738C1474.66 539.939 1473.55 537.712 1473.21 535.315L1448.4 432.546L1423.85 535.229C1423.51 537.627 1422.4 539.853 1420.77 541.652C1418.89 542.937 1416.58 543.536 1414.36 543.279H1400.58ZM1605.28 547.561C1596.99 547.561 1588.78 546.619 1580.73 544.821C1574.32 543.536 1568.16 541.395 1562.34 538.398C1558.75 536.856 1556.44 533.345 1556.53 529.491V521.355C1556.53 518.015 1557.72 516.388 1560.12 516.388C1561.15 516.388 1562.17 516.645 1563.11 516.987L1567.13 518.615C1572.78 521.098 1578.6 522.982 1584.67 524.181C1591 525.466 1597.42 526.151 1603.83 526.065C1611.96 526.579 1620 524.695 1627.1 520.756C1632.4 517.587 1635.57 511.849 1635.31 505.683C1635.4 501.572 1633.86 497.547 1631.03 494.55C1626.16 490.525 1620.51 487.613 1614.35 486.071L1591.26 478.792C1581.5 476.051 1572.86 470.485 1566.45 462.692C1561.32 456.097 1558.49 447.961 1558.49 439.569C1558.32 433.403 1559.86 427.236 1562.77 421.841C1565.59 416.703 1569.53 412.249 1574.15 408.652C1579.02 404.97 1584.58 402.144 1590.4 400.431C1596.9 398.547 1603.66 397.605 1610.42 397.69C1614.01 397.69 1617.6 397.947 1621.11 398.376C1624.62 398.804 1628.04 399.403 1631.46 400.174C1634.71 400.945 1637.79 401.801 1640.61 402.658C1642.92 403.428 1645.15 404.285 1647.29 405.398C1649.08 406.34 1650.71 407.71 1651.99 409.338C1653.02 410.879 1653.53 412.763 1653.44 414.647V422.269C1653.44 425.609 1652.25 427.236 1649.77 427.236C1647.63 426.979 1645.57 426.38 1643.61 425.352C1633.94 421.156 1623.51 419.015 1612.98 419.186C1605.63 418.844 1598.36 420.385 1591.77 423.725C1586.81 426.637 1583.81 432.118 1584.24 437.941C1584.16 442.223 1585.87 446.334 1588.95 449.246C1594.08 453.357 1600.07 456.354 1606.48 458.067L1629.07 464.918C1638.65 467.402 1647.2 472.797 1653.7 480.248C1658.75 486.842 1661.4 494.978 1661.14 503.285C1661.23 509.708 1659.77 516.045 1656.95 521.783C1654.13 527.264 1650.19 532.06 1645.4 535.914C1640.1 540.025 1634.11 543.022 1627.7 544.821C1620.43 546.79 1612.9 547.732 1605.28 547.561Z" fill="#252F3E"/>
<path fill-rule="evenodd" clip-rule="evenodd" d="M1635.4 626.093C1582.96 664.888 1506.83 685.528 1441.9 685.528C1354.22 686.127 1269.54 653.841 1204.44 595.006C1199.56 590.553 1203.84 584.558 1209.83 587.898C1282.02 629.262 1363.8 651.015 1446.95 650.929C1509.05 650.586 1570.56 637.997 1627.78 613.847C1636.59 610.079 1644.12 619.67 1635.4 626.093Z" fill="#FF9900"/>
<path fill-rule="evenodd" clip-rule="evenodd" d="M1657.21 601.172C1650.54 592.522 1612.81 597.147 1595.96 599.117C1590.91 599.716 1590.06 595.263 1594.59 592.008C1624.62 570.941 1673.89 576.936 1679.53 584.044C1685.18 591.152 1677.99 640.566 1649.94 664.203C1645.66 667.8 1641.47 665.916 1643.44 661.12C1649.77 645.191 1663.97 609.822 1657.21 601.172Z" fill="#FF9900"/>
<path d="M1337.37 501.744C1337.2 506.539 1337.8 511.335 1339.17 515.96C1340.53 519.899 1342.25 523.753 1344.3 527.35C1344.98 528.463 1345.41 529.662 1345.41 530.947C1345.24 532.917 1344.04 534.629 1342.33 535.657L1332.75 542.423C1331.47 543.279 1330.01 543.793 1328.56 543.879C1326.76 543.793 1325.05 543.022 1323.85 541.652C1321.63 539.425 1319.66 536.942 1318.12 534.287C1316.33 531.204 1314.7 527.949 1313.25 524.695C1301.87 538.911 1284.59 547.047 1266.46 546.79C1254.74 547.39 1243.27 543.279 1234.63 535.4C1226.59 527.264 1222.4 516.131 1222.92 504.655C1222.4 492.237 1227.53 480.248 1236.94 472.026C1248.06 463.291 1261.92 458.923 1276.04 459.694C1281.68 459.694 1287.33 460.122 1292.89 460.979C1298.79 461.835 1304.86 462.948 1311.19 464.404V452.672C1312.13 443.508 1309.4 434.345 1303.58 427.151C1296.22 421.413 1286.9 418.844 1277.58 419.786C1271.76 419.786 1266.03 420.556 1260.38 421.927C1254.57 423.297 1248.83 425.181 1243.27 427.408C1241.48 428.264 1239.6 428.949 1237.71 429.549H1235.23C1233.01 429.549 1231.9 427.922 1231.9 424.582V416.874C1231.73 414.99 1232.15 413.02 1233.01 411.307C1234.21 409.851 1235.75 408.652 1237.54 407.967C1243.96 404.884 1250.63 402.486 1257.56 400.774C1265.69 398.718 1273.98 397.69 1282.37 397.69C1297.42 396.32 1312.39 401.03 1324.02 410.622C1333.61 421.327 1338.4 435.544 1337.28 449.845L1337.37 501.744ZM1272.61 526.065C1278.26 525.98 1283.82 524.952 1289.12 523.068C1294.94 521.013 1300.16 517.501 1304.18 512.791C1306.66 510.051 1308.46 506.711 1309.57 503.199C1310.68 498.66 1311.19 494.036 1311.11 489.411V482.731C1306.23 481.618 1301.36 480.676 1296.4 480.076C1291.43 479.477 1286.47 479.134 1281.43 479.134C1273.04 478.535 1264.66 480.762 1257.73 485.557C1248.32 494.978 1247.64 509.965 1256.02 520.156C1260.55 524.181 1266.54 526.322 1272.61 526.065ZM1400.58 543.279C1398.45 543.45 1396.22 542.937 1394.43 541.738C1392.71 540.025 1391.6 537.884 1391.09 535.486L1353.79 412.078C1353.11 410.023 1352.6 407.882 1352.34 405.655C1352 403.771 1353.28 402.058 1355.16 401.716C1355.16 401.716 1355.16 401.716 1355.25 401.716C1355.59 401.63 1355.93 401.63 1356.27 401.716H1371.93C1374.15 401.459 1376.29 402.058 1378.17 403.257C1379.8 405.056 1380.82 407.197 1381.34 409.509L1408.11 515.018L1432.92 409.509C1433.26 407.197 1434.37 405.056 1436.08 403.343C1437.97 402.144 1440.28 401.63 1442.5 401.801H1455.33C1457.55 401.63 1459.86 402.144 1461.75 403.343C1463.37 405.056 1464.48 407.197 1464.83 409.594L1489.8 516.474L1517.43 409.594C1517.95 407.282 1519.06 405.141 1520.68 403.343C1522.48 402.144 1524.7 401.544 1526.93 401.801H1541.73C1543.61 401.544 1545.32 402.743 1545.66 404.627C1545.66 404.627 1545.66 404.627 1545.66 404.713C1545.75 405.056 1545.75 405.398 1545.66 405.741C1545.75 406.597 1545.75 407.368 1545.66 408.224C1545.32 409.594 1544.98 410.879 1544.55 412.164L1506.23 535.571C1505.71 537.969 1504.6 540.11 1502.89 541.823C1501.1 543.022 1498.96 543.536 1496.73 543.365H1482.7C1480.48 543.622 1478.17 543.022 1476.29 541.738C1474.66 539.939 1473.55 537.712 1473.21 535.315L1448.4 432.546L1423.85 535.229C1423.51 537.627 1422.4 539.853 1420.77 541.652C1418.89 542.937 1416.58 543.536 1414.36 543.279H1400.58ZM1605.28 547.561C1596.99 547.561 1588.78 546.619 1580.73 544.821C1574.32 543.536 1568.16 541.395 1562.34 538.398C1558.75 536.856 1556.44 533.345 1556.53 529.491V521.355C1556.53 518.015 1557.72 516.388 1560.12 516.388C1561.15 516.388 1562.17 516.645 1563.11 516.987L1567.13 518.615C1572.78 521.098 1578.6 522.982 1584.67 524.181C1591 525.466 1597.42 526.151 1603.83 526.065C1611.96 526.579 1620 524.695 1627.1 520.756C1632.4 517.587 1635.57 511.849 1635.31 505.683C1635.4 501.572 1633.86 497.547 1631.03 494.55C1626.16 490.525 1620.51 487.613 1614.35 486.071L1591.26 478.792C1581.5 476.051 1572.86 470.485 1566.45 462.692C1561.32 456.097 1558.49 447.961 1558.49 439.569C1558.32 433.403 1559.86 427.236 1562.77 421.841C1565.59 416.703 1569.53 412.249 1574.15 408.652C1579.02 404.97 1584.58 402.144 1590.4 400.431C1596.9 398.547 1603.66 397.605 1610.42 397.69C1614.01 397.69 1617.6 397.947 1621.11 398.376C1624.62 398.804 1628.04 399.403 1631.46 400.174C1634.71 400.945 1637.79 401.801 1640.61 402.658C1642.92 403.428 1645.15 404.285 1647.29 405.398C1649.08 406.34 1650.71 407.71 1651.99 409.338C1653.02 410.879 1653.53 412.763 1653.44 414.647V422.269C1653.44 425.609 1652.25 427.236 1649.77 427.236C1647.63 426.979 1645.57 426.38 1643.61 425.352C1633.94 421.156 1623.51 419.015 1612.98 419.186C1605.63 418.844 1598.36 420.385 1591.77 423.725C1586.81 426.637 1583.81 432.118 1584.24 437.941C1584.16 442.223 1585.87 446.334 1588.95 449.246C1594.08 453.357 1600.07 456.354 1606.48 458.067L1629.07 464.918C1638.65 467.402 1647.2 472.797 1653.7 480.248C1658.75 486.842 1661.4 494.978 1661.14 503.285C1661.23 509.708 1659.77 516.045 1656.95 521.783C1654.13 527.264 1650.19 532.06 1645.4 535.914C1640.1 540.025 1634.11 543.022 1627.7 544.821C1620.43 546.79 1612.9 547.732 1605.28 547.561Z" fill="#252F3E"/>
<path fill-rule="evenodd" clip-rule="evenodd" d="M1635.4 626.093C1582.96 664.888 1506.83 685.528 1441.9 685.528C1354.22 686.127 1269.54 653.841 1204.44 595.006C1199.56 590.553 1203.84 584.558 1209.83 587.898C1282.02 629.262 1363.8 651.015 1446.95 650.929C1509.05 650.586 1570.56 637.997 1627.78 613.847C1636.59 610.079 1644.12 619.67 1635.4 626.093Z" fill="#252F3E"/>
<path fill-rule="evenodd" clip-rule="evenodd" d="M1657.21 601.172C1650.54 592.522 1612.81 597.147 1595.96 599.117C1590.91 599.716 1590.06 595.263 1594.59 592.008C1624.62 570.941 1673.89 576.936 1679.53 584.044C1685.18 591.152 1677.99 640.566 1649.94 664.203C1645.66 667.8 1641.47 665.916 1643.44 661.12C1649.77 645.191 1663.97 609.822 1657.21 601.172Z" fill="#252F3E"/>
<path d="M437.522 637.615V727.316H462.852V637.615H437.522ZM238.32 637.492V727.316H263.866V659.112H283.659C290.213 659.112 294.888 660.753 298.046 664.12C302.051 668.389 303.683 675.277 303.683 687.874V727.316H328.436V677.688C328.436 642.269 305.871 637.492 283.79 637.492H238.32ZM478.286 637.615V727.316H519.359C541.239 727.316 548.386 723.671 556.111 715.512C561.571 709.779 565.098 697.205 565.098 683.452C565.098 670.846 562.11 659.597 556.904 652.593C547.523 640.065 534.007 637.623 513.829 637.623H478.294L478.286 637.615ZM503.409 657.147H514.299C530.095 657.147 540.307 664.243 540.307 682.658C540.307 701.073 530.095 708.169 514.299 708.169H503.409V657.147ZM401.008 637.615L379.875 708.708L359.628 637.623H332.295L361.214 727.316H397.712L426.863 637.615H401.016H401.008ZM576.882 727.308H602.204V637.615H576.874V727.308H576.882ZM647.867 637.646L612.509 727.277H637.478L643.069 711.436H684.912L690.21 727.277H717.32L681.693 637.638H647.867V637.646ZM664.302 653.996L679.644 695.988H648.483L664.31 653.996H664.302Z" fill="black"/>
<path d="M404.043 427.501V405.95C406.13 405.804 408.248 405.688 410.397 405.619C469.306 403.77 507.96 456.264 507.96 456.264C507.96 456.264 466.218 514.266 421.456 514.266C415.01 514.266 409.241 513.226 404.043 511.477V446.132C426.978 448.905 431.591 459.037 445.377 482.029L476.045 456.163C476.045 456.163 453.656 426.792 415.926 426.792C411.821 426.792 407.894 427.085 404.043 427.493M404.043 356.315V388.506C406.161 388.337 408.271 388.206 410.397 388.129C492.326 385.371 545.698 455.347 545.698 455.347C545.698 455.347 484.393 529.931 420.524 529.931C414.671 529.931 409.195 529.391 404.043 528.474V548.368C408.448 548.931 413.007 549.255 417.767 549.255C477.208 549.255 520.19 518.889 561.81 482.946C568.703 488.47 596.96 501.923 602.767 507.817C563.188 540.964 470.962 567.677 418.676 567.677C413.639 567.677 408.795 567.377 404.035 566.914V594.875H629.938V356.315H404.035H404.043ZM404.043 511.485V528.474C349.069 518.666 333.812 461.503 333.812 461.503C333.812 461.503 360.205 432.247 404.043 427.509V446.147C404.043 446.147 403.989 446.139 403.958 446.139C380.953 443.373 362.978 464.878 362.978 464.878C362.978 464.878 373.052 501.076 404.043 511.493M306.402 459.022C306.402 459.022 338.98 410.928 404.043 405.95V388.506C331.987 394.293 269.589 455.347 269.589 455.347C269.589 455.347 304.931 557.56 404.043 566.922V548.376C331.309 539.223 306.402 459.03 306.402 459.03V459.022Z" fill="#76B900"/>
<rect x="956" y="266" width="8" height="550" fill="#CCCCCC"/>
</svg>
